<svg width="15" height="20" viewBox="0 0 15 20" fill="none" xmlns="http://www.w3.org/2000/svg">
<g clip-path="url(#clip0_1_2909)">
<path d="M13.6931 10.3706C13.5159 9.97365 13.2715 9.58274 12.914 9.13123C12.0126 7.9979 11.7376 5.47062 11.7345 5.44638C11.7223 5.32517 11.6367 5.22517 11.5237 5.1888C11.4076 5.15244 11.2823 5.18577 11.1998 5.27668C10.1242 6.47971 10.5765 8.33729 10.8209 9.07971C10.8881 9.28274 10.9615 9.52214 11.0134 9.76456C11.4106 11.7252 10.6437 12.613 10.4634 12.7918C10.2892 12.8403 10.17 12.8161 10.06 12.6979C9.68116 12.2827 9.55588 10.9221 9.7331 9.14941C9.7698 8.7888 9.76061 8.46456 9.70866 8.16153C9.33491 5.98265 7.96449 4.58502 7.6156 4.09487C6.65616 2.67668 6.55838 0.316077 6.55533 0.294865C6.55227 0.182744 6.48811 0.0827441 6.38727 0.0342593C6.28949 -0.0142256 6.17033 -0.00816496 6.07866 0.0554714C4.47755 1.14335 4.61505 3.76456 4.83811 5.2282C4.89005 5.56759 4.99088 5.91305 5.16505 6.34941C5.78533 7.91002 5.04283 9.92517 5.03672 9.94335C5.03061 9.96153 5.02449 9.97668 5.02144 9.99487C4.92672 10.4918 4.76783 10.7888 4.59061 10.7888C4.57227 10.7888 4.55394 10.7858 4.53255 10.7797C4.31561 10.7343 4.20255 10.504 4.19949 10.304C4.18727 7.71911 1.59311 6.84941 1.56561 6.84032C1.44949 6.80396 1.32116 6.83729 1.24172 6.93123C1.15922 7.02517 1.14394 7.15547 1.19894 7.26456C1.22949 7.3282 1.32727 7.60699 1.26005 8.59184C1.20199 9.47668 1.04005 10.3524 0.780328 11.1918C0.163106 13.204 0.260884 15.11 0.266995 15.2009C0.741614 20.3617 8.16374 21.266 12.5687 18.3585C13.0514 18.0403 13.4456 17.6767 13.7359 17.2767C15.3615 15.0343 14.4051 11.9888 13.6931 10.3706ZM2.40286 15.3009C2.41203 15.4676 2.28369 15.61 2.11564 15.6191H2.0973C1.93536 15.6191 1.80091 15.4949 1.79175 15.3343C1.76425 14.8918 1.77036 14.4282 1.80397 13.9252C1.81619 13.7585 1.96286 13.6343 2.13091 13.6433C2.29897 13.6554 2.4273 13.8009 2.41508 13.9676C2.38144 14.4464 2.37536 14.8827 2.40286 15.3009ZM2.55255 12.6161C2.53422 12.7706 2.40283 12.8827 2.25005 12.8827C2.23783 12.8827 2.22561 12.8827 2.21033 12.8797C2.04533 12.8585 1.92616 12.71 1.94449 12.5434L2.09116 11.3737C2.11255 11.21 2.26227 11.0918 2.43338 11.11C2.60144 11.1312 2.72061 11.2827 2.69922 11.4494L2.55255 12.6161Z" fill="#FF6B09"/>
<path d="M11.626 4.1459C11.4594 4.12029 11.3451 3.96584 11.3708 3.80057C11.3899 3.67745 11.5003 3.04714 11.7999 2.7302C11.9152 2.60799 12.1083 2.60163 12.2318 2.71644C12.3549 2.83081 12.3612 3.0226 12.2457 3.14481C12.1189 3.27902 12.0108 3.66311 11.9747 3.89293C11.949 4.05645 11.7952 4.1712 11.626 4.1459Z" fill="#FF6B09"/>
<path d="M0.486534 5.65529C0.428051 5.42992 0.282729 5.05826 0.143243 4.93692C0.0162845 4.82653 0.00360387 4.63507 0.114887 4.50932C0.225896 4.38326 0.418793 4.37038 0.546057 4.4812C0.875323 4.7675 1.04735 5.38407 1.07855 5.50465C1.12032 5.66668 1.02187 5.8315 0.85864 5.87323C0.691807 5.91483 0.528121 5.81462 0.486534 5.65529Z" fill="#FF6B09"/>
</g>
<defs>
<clipPath id="clip0_1_2909">
<rect width="14.6667" height="20" fill="white"/>
</clipPath>
</defs>
</svg>
