<!-- Generated by IcoMoon.io -->
<svg version="1.1" xmlns="http://www.w3.org/2000/svg" width="31" height="32" viewBox="0 0 31 32">
<title>border-dollor</title>
<path fill="#ff6b09" d="M6.947 14.566c0 0.227-0.344 0.227-0.344 0 0-4.818 3.907-8.725 8.725-8.725 4.82 0 8.725 3.907 8.725 8.725 0 0.227-0.342 0.227-0.342 0 0-3.256-5.351-3.258-5.351 0 0 0.227-0.352 0.227-0.352 0 0-3.248-5.36-3.248-5.36 0 0 0.227-0.352 0.227-0.352 0 0-3.242-5.349-3.265-5.349 0zM12.327 13.302c0.093-1.874 0.387-3.555 0.816-4.838 0.342-1.020 0.774-1.794 1.265-2.229-3.679 0.402-6.657 3.191-7.322 6.808 1.267-1.827 4.192-1.681 5.242 0.26zM17.981 13.217c-0.095-1.802-0.381-3.415-0.793-4.645-1.063-3.182-2.657-3.182-3.72 0-0.412 1.23-0.696 2.842-0.793 4.645 1.143-1.942 4.163-1.942 5.306 0zM23.571 13.042c-0.663-3.617-3.642-6.406-7.322-6.808 0.492 0.435 0.923 1.209 1.265 2.229 0.428 1.283 0.723 2.964 0.816 4.838 1.057-1.951 3.99-2.066 5.242-0.26z"></path>
<path fill="#ff6b09" d="M14.183 18.559v-1.772c-0.319 0.212-0.571 0.54-0.571 0.939 0 0.389 0.255 0.647 0.571 0.832zM14.527 19.109c-0.612-0.28-1.256-0.608-1.256-1.382 0-0.799 0.608-1.199 1.256-1.498v2.88z"></path>
<path fill="#ff6b09" d="M16.473 21.232v1.792c0.323-0.214 0.577-0.544 0.577-0.943 0-0.393-0.26-0.659-0.577-0.849zM16.131 20.68c0.614 0.284 1.263 0.622 1.263 1.401 0 0.801-0.612 1.201-1.263 1.497v-2.898z"></path>
<path fill="#ff6b09" d="M16.473 14.77c1.409 0.325 2.857 1.38 2.857 2.956 0 1.349-2.28 1.3-2.28 0 0-0.402-0.253-0.731-0.577-0.943v2.521c1.304 0.426 2.861 1.191 2.861 2.777 0 1.578-1.448 2.63-2.861 2.954-0.006 1.502-2.286 1.5-2.29-0.002-0.803-0.185-1.502-0.56-2.006-1.057-0.529-0.523-0.842-1.18-0.842-1.895 0-1.329 2.278-1.329 2.278 0 0 0.398 0.251 0.725 0.571 0.937v-2.519c-1.293-0.418-2.859-1.205-2.859-2.777 0-1.578 1.448-2.63 2.859-2.954 0.006-1.502 2.286-1.5 2.29 0.002zM14.527 14.774v0.274c-1.341 0.266-2.861 1.125-2.861 2.674 0 1.489 1.668 2.157 2.861 2.525v3.329c-0.645-0.295-1.256-0.692-1.256-1.495 0-0.878-1.594-0.878-1.594 0 0 0.62 0.276 1.193 0.742 1.65 0.591 0.585 1.308 0.863 2.109 1.022v0.276c0 1.057 1.605 1.057 1.605 0v-0.274c1.345-0.268 2.859-1.127 2.859-2.674 0-1.504-1.664-2.15-2.859-2.527v-3.327c0.647 0.295 1.263 0.692 1.263 1.5 0 0.855 1.592 0.89 1.592 0 0-1.547-1.512-2.408-2.855-2.676v-0.276c0-1.057-1.605-1.057-1.605 0z"></path>
<path fill="none" stroke="#ff6b09" stroke-linejoin="miter" stroke-linecap="butt" stroke-miterlimit="4" stroke-width="1.0159" d="M30.387 4.945v-4.183h-29.879v30.476h29.879v-4.183"></path>
</svg>
